<?xml version="1.0" encoding="utf-8"?>
<!-- Generator: Adobe Illustrator 28.1.0, SVG Export Plug-In . SVG Version: 6.00 Build 0)  -->
<svg version="1.1" id="Layer_1" xmlns="http://www.w3.org/2000/svg" xmlns:xlink="http://www.w3.org/1999/xlink" x="0px" y="0px"
	 viewBox="0 0 178 125" style="enable-background:new 0 0 178 125;" xml:space="preserve">
<style type="text/css">
	.st0{fill:none;stroke:#000000;stroke-miterlimit:10;}
	.st1{fill:#FFFFFF;}
	.st2{fill:#DAE2EF;}
</style>
<g>
	<g>
		<path d="M68.41,71.05c0-6.44,0.05-12.6,0.19-15.9h-0.14c-1.33,4.42-8.07,20.65-12.29,31.04h-2.52
			c-3.18-8.04-10.16-26.1-11.67-31.09h-0.1c0.24,3.76,0.33,11.43,0.33,17.07V86.2h-2.56V53.28h3.84
			c4.56,11.29,10.3,26.05,11.53,29.77h0.09c0.76-2.4,7.4-18.81,12.05-29.77h3.8V86.2h-2.56V71.05z"/>
		<path d="M80.27,53.28h2.56v30.57h17.84l-0.47,2.35H80.27V53.28z"/>
	</g>
</g>
<rect x="820.68" y="-97.62" style="fill:none;" width="2.13" height="0"/>
<rect x="310.04" y="42.81" style="fill:none;" width="0" height="102.13"/>
<g>
	<g>
	</g>
</g>
<path class="st0" d="M121.78,70.34c-2.11-0.34-5.64-1.21-8.98-3.81c-3.64-2.84-8.51-8.9-6.41-12.71c1.42-2.57,6.05-3.99,8.98-2.54
	c2.56,1.27,2.37,1.89,3.85,3.81c2.33,3.03,5.28,7.52,5.13,12.71C123.49,68.65,122.63,69.49,121.78,70.34z"/>
<path class="st0" d="M126.91,76.69"/>
<path class="st0" d="M132.04,71.61c-0.14-1.65-2.3-3.65-2.56-3.81c-1.15-0.71,2.98-6.82,3.21-14.61c0.05-1.66-0.06-3.97-1.28-6.35
	c-0.57-1.11-1.83-3.59-3.85-3.81c-2.61-0.29-4.86,3.37-5.13,3.81c0,0-4.29,7.15,2.2,19.65c0.01,0.01,0.24,0.46,0.24,0.46
	c0,0,0,0,0,0c0.01,0.03,0.08,0.15,0.08,0.15c0.01,0.01,0.02,0.03,0.03,0.06c0.78,1.34,4.49,0.59,4.5,0.66
	c0.01,0.09-5.98-0.3-7.69,2.54c-0.96,1.59-0.15,3.49,0,3.81c1.17,2.61,5.03,4.05,7.69,2.54C131.37,75.62,132.18,73.3,132.04,71.61z"
	/>
<path class="st0" d="M138.45,51.28"/>
<path class="st0" d="M132.04,61.44c-1.06,3.02-2.59,6.34-2.56,6.35c0.08,0.03,2.96-10.31,8.98-15.25c1.52-1.24,3.95-3.24,6.41-2.54
	c2.7,0.77,4.35,4.49,3.85,7.63c-0.49,3.06-13.3,11.94-16.67,12.71"/>
<path class="st0" d="M143.32,63.69"/>
<path class="st0" d="M137.17,67.8c4.07-1.15,11.96-0.15,14.11,2.54c1.22,1.53,2.4,4.32,1.28,6.35c-1.17,2.14-4.26,2.3-8.98,2.54
	c-4.93,0.26-8-0.88-8.98-1.27c-0.82-0.33-1.57-0.6-2.11-0.93c-0.18-0.11-1.74-1.62-0.46-0.35"/>
<path class="st0" d="M121.78,71.61c-1.67-0.56-10.26-3.3-15.39,0.5c-0.78,0.57-2.32,1.73-2.56,3.6c-0.25,1.86,0.83,4.03,2.56,4.81
	c0.68,0.31,2,0.64,8.98-2.4c3.54-1.54,6.31-2.86,6.41-2.69c0.21,0.37-13.51,5.36-14.11,12.71c-0.3,3.73,1.95,8.08,5.13,8.9
	c2.36,0.61,4.77-0.83,6.73-2.8c0.49-0.49,2.18-1.95,3.53-4.83c2.4-5.12,1.78-10.21,1.28-12.71"/>
<path class="st0" d="M129.47,76.69c0.29-0.03,0.74-0.05,1.28,0c5.2,0.51,8.2,7.17,8.98,8.9c1.23,2.73,2.29,5.08,1.28,7.63
	c-1.04,2.63-3.57,3.7-3.85,3.81c-0.45,0.18-3.01,1.22-5.13,0c-0.94-0.54-1.5-1.64-2.56-3.81c-0.69-1.4-1.4-3.05-2.56-6.35
	c-1.03-2.93-1.19-3.27-1.28-3.81c-0.44-2.43,0-5.06,0-5.08c0-0.42,0-0.85,0-1.27"/>
<path class="st0" d="M129.47,67.8"/>
<path class="st0" d="M125.19,67.33"/>
<path class="st0" d="M125.62,66.53"/>
<g>
	<g>
		<path class="st1" d="M126.91,76.53c1.93,0,1.93-3,0-3C124.98,73.53,124.97,76.53,126.91,76.53L126.91,76.53z"/>
	</g>
</g>
<g>
	<g>
		<path class="st2" d="M123.9,47.73c0.05,1.51,0.1,3.02,0.15,4.53c0.06,1.93,3.06,1.93,3,0c-0.04-1.12,0.15-2.55-0.27-3.6
			c-0.45-1.16-1.84-1.58-2.92-1.04c-0.95,0.47-1.34,1.38-1.49,2.39c-0.17,1.11-0.28,2.22-0.27,3.34c0.02,4.37,1.44,8.7,3.99,12.24
			c0.63,0.87,2,1.06,2.59,0c0.72-1.29,1.51-2.51,2.03-3.9c0.51-1.37,0.74-2.82,0.93-4.26c0.35-2.65,0.8-5.54-0.2-8.11
			c-0.29-0.73-0.58-1.31-1.41-1.48c-0.74-0.15-1.43,0.15-1.93,0.7c-0.48,0.52-0.7,1.25-0.94,1.91c-0.26,0.69-0.49,1.39-0.7,2.1
			c-0.82,2.84-1.19,5.82-1.12,8.78c0.98-0.13,1.96-0.27,2.95-0.4c-0.14-0.39,0-0.68,0.12-1.07c0.59-1.84-2.31-2.63-2.89-0.8
			c-0.28,0.87-0.44,1.78-0.12,2.66c0.54,1.52,2.99,1.38,2.95-0.4c-0.04-1.91,0.09-3.81,0.46-5.69c0.18-0.93,0.41-1.85,0.69-2.75
			c0.14-0.45,0.29-0.9,0.45-1.35c0.07-0.2,0.15-0.4,0.22-0.59c0.21-0.53,0.25-0.33-0.14-0.21c-0.27,0-0.53,0-0.8,0
			c0.06,0.01,0.12,0.02,0.18,0.03c-0.3-0.23-0.6-0.46-0.9-0.69c0.97,2.13,0.45,4.82,0.16,7.05c-0.15,1.18-0.37,2.36-0.76,3.48
			c-0.43,1.24-1.2,2.33-1.83,3.47c0.86,0,1.73,0,2.59,0c-1.54-2.13-2.64-4.5-3.19-7.08c-0.27-1.25-0.4-2.51-0.39-3.79
			c0-0.66,0.04-1.31,0.11-1.96c0.03-0.24,0.06-0.48,0.1-0.72c0.02-0.15,0.06-0.29,0.1-0.44c-0.15,0.21-0.36,0.31-0.62,0.31
			c-0.22-0.13-0.44-0.26-0.66-0.39c-0.24-0.2-0.09-0.57-0.14-0.04c-0.03,0.27,0.02,0.55,0.03,0.82c0.02,0.49,0.03,0.99,0.05,1.48
			c1,0,2,0,3,0c-0.05-1.51-0.1-3.02-0.15-4.53C126.84,45.8,123.84,45.8,123.9,47.73L123.9,47.73z"/>
	</g>
</g>
<g>
	<g>
		<path class="st2" d="M129.59,48.6c0.01-0.31,0.01-0.62,0.02-0.93c-0.75,0.43-1.5,0.86-2.26,1.3c0.75,0.38,1.53,0.49,2.35,0.3
			c0.92-0.22,1.4-1.4,0.9-2.2c-0.25-0.4-0.53-0.79-0.81-1.17c-0.34-0.45-0.68-0.92-1.08-1.32c-0.37-0.36-0.82-0.6-1.35-0.59
			c-0.41,0.01-0.78,0.18-1.14,0.37c-0.43,0.23-0.82,0.53-1.19,0.84c-1.41,1.2-2.23,3.03-2.3,4.87c1,0,2,0,3,0
			c-0.01-0.25-0.02-0.51-0.03-0.76c-0.02-0.61-0.36-1.13-0.92-1.37c-0.53-0.22-1.23-0.13-1.64,0.31c-0.8,0.88-1.08,1.97-0.86,3.13
			c0.14,0.77,1.12,1.28,1.85,1.05c0.83-0.27,1.2-1.02,1.05-1.85c-0.04-0.23,0.01,0.14,0.02,0.14c-0.01-0.01,0-0.15,0-0.17
			c-0.01-0.21-0.03,0.1-0.03,0.14c-0.01-0.06,0.03-0.15,0.05-0.21c0.02-0.05,0.09-0.24,0-0.02c-0.1,0.22-0.01,0.03,0.02-0.01
			c0.03-0.05,0.06-0.1,0.09-0.15c0.08-0.15-0.24,0.29-0.05,0.07c-0.85-0.35-1.71-0.71-2.56-1.06c0.01,0.25,0.02,0.51,0.03,0.76
			c0.03,0.78,0.67,1.54,1.5,1.5c0.84-0.04,1.47-0.66,1.5-1.5c0-0.11,0.01-0.22,0.02-0.33c0.02-0.23-0.03,0.15-0.02,0.15
			c-0.01-0.02,0.02-0.14,0.03-0.16c0.04-0.23,0.1-0.46,0.17-0.68c0.03-0.1,0.07-0.21,0.11-0.31c0.06-0.17-0.14,0.3-0.05,0.13
			c0.02-0.05,0.05-0.1,0.07-0.15c0.1-0.21,0.22-0.41,0.35-0.61c0.06-0.09,0.13-0.18,0.19-0.27c-0.03,0.04-0.21,0.26-0.08,0.11
			c0.04-0.04,0.07-0.08,0.11-0.13c0.15-0.16,0.3-0.32,0.47-0.47c0.04-0.04,0.08-0.07,0.13-0.11c0.15-0.13-0.07,0.06-0.11,0.08
			c0.11-0.05,0.2-0.15,0.31-0.21c0.09-0.06,0.19-0.12,0.28-0.17c0.05-0.03,0.1-0.05,0.15-0.08c0.4-0.2-0.25,0.26-0.72,0.07
			c-0.22-0.13-0.44-0.26-0.66-0.39c0.18,0.14,0.32,0.33,0.46,0.5c0.15,0.18,0.32,0.36,0.45,0.55c-0.22-0.33-0.05-0.06,0.01,0.02
			c0.08,0.11,0.16,0.22,0.24,0.33c0.14,0.19,0.27,0.39,0.39,0.59c0.3-0.73,0.6-1.47,0.9-2.2c-0.27,0.06,0.26,0.01,0.07,0
			c-0.06,0-0.18-0.02-0.24,0c0.07-0.02,0.32,0.07,0.12,0c-0.32-0.1,0.3,0.16,0.01,0.01c-1.01-0.52-2.24,0.12-2.26,1.3
			c-0.01,0.31-0.01,0.62-0.02,0.93c-0.01,0.78,0.7,1.54,1.5,1.5C128.91,50.06,129.58,49.44,129.59,48.6L129.59,48.6z"/>
	</g>
</g>
<g>
	<g>
		<path class="st2" d="M128.73,50.06c0.21,0.07,0.41,0.14,0.62,0.21c-0.37-0.48-0.73-0.96-1.1-1.45c0.01,0.1,0.02,0.19,0.03,0.29
			c-0.01,0.21,0.04,0.4,0.13,0.58c0.06,0.19,0.16,0.35,0.31,0.48c0.14,0.15,0.3,0.25,0.48,0.31c0.18,0.09,0.37,0.14,0.58,0.13
			c0.13-0.02,0.27-0.04,0.4-0.05c0.25-0.07,0.47-0.2,0.66-0.39c0.08-0.1,0.16-0.2,0.23-0.3c0.14-0.23,0.2-0.49,0.2-0.76
			c-0.01-0.1-0.02-0.19-0.03-0.29c-0.02-0.13-0.04-0.27-0.05-0.4c-0.05-0.2-0.14-0.37-0.27-0.51c-0.07-0.11-0.16-0.2-0.27-0.27
			c-0.14-0.13-0.31-0.22-0.51-0.27c-0.21-0.07-0.41-0.14-0.62-0.21c-0.2-0.06-0.4-0.07-0.6-0.03c-0.2,0.01-0.39,0.07-0.56,0.18
			c-0.17,0.09-0.32,0.22-0.42,0.39c-0.13,0.14-0.22,0.31-0.27,0.51c-0.02,0.13-0.04,0.27-0.05,0.4c0,0.27,0.07,0.52,0.2,0.76
			c0.08,0.1,0.16,0.2,0.23,0.3C128.26,49.87,128.48,49.99,128.73,50.06L128.73,50.06z"/>
	</g>
</g>
<g>
	<g>
		<path class="st2" d="M144.46,54.61c-1.05,0.91-2.11,1.83-3.16,2.74c0.35-0.15,0.71-0.29,1.06-0.44c-2.53,0.03-5,1.14-6.55,3.18
			c-0.82,1.08-1.33,2.36-2,3.53c-0.66,1.15-1.4,2.25-2.23,3.27c0.79,0.1,1.57,0.2,2.36,0.3c-0.02,0.42,0.01,0.52,0.06,0.29
			c0.02-0.07,0.04-0.13,0.07-0.19c0.07-0.17,0.15-0.33,0.22-0.5c0.21-0.46,0.42-0.91,0.64-1.36c0.42-0.86,0.86-1.71,1.32-2.55
			c0.93-1.69,1.94-3.33,3.03-4.92c0.46-0.67,0.13-1.66-0.54-2.05c-0.74-0.43-1.59-0.13-2.05,0.54c-1.17,1.71-2.34,3.42-3.5,5.12
			c-0.33,0.49-0.23,1.23,0.12,1.67c0.41,0.51,0.95,0.63,1.58,0.54c5.19-0.77,7.95-5.53,9.95-9.86c0.72-1.57-1.01-2.92-2.36-1.82
			c-1.18,0.97-2.39,1.92-3.89,2.31c0.49,0.84,0.97,1.67,1.46,2.51c1.19-1.33,2.81-2.21,4.6-2.39c-0.35-0.15-0.71-0.29-1.06-0.44
			c0.71,0.66,1.91,2.38,1.11,3.34c-0.53,0.64-1.29,1.17-1.92,1.71c-0.67,0.59-1.34,1.17-2.02,1.74c-2.66,2.21-5.55,4.26-8.78,5.53
			c-0.75,0.29-1.28,1.01-1.05,1.85c0.2,0.72,1.09,1.34,1.85,1.05c4.24-1.66,7.85-4.33,11.27-7.29c0.83-0.72,1.66-1.44,2.47-2.18
			c0.89-0.81,1.37-1.74,1.38-2.96c0.02-1.13-0.31-2.28-0.87-3.26c-0.57-1-1.46-2.21-2.74-2.05c-2.43,0.3-4.72,1.39-6.37,3.23
			c-0.98,1.09-0.04,2.9,1.46,2.51c2.02-0.53,3.63-1.79,5.22-3.08c-0.79-0.61-1.57-1.21-2.36-1.82c-1.68,3.66-3.73,7.83-8.15,8.48
			c0.56,0.73,1.13,1.47,1.69,2.2c1.17-1.71,2.34-3.42,3.5-5.12c-0.86-0.5-1.73-1.01-2.59-1.51c-1.29,1.89-2.48,3.85-3.55,5.88
			c-0.51,0.97-0.99,1.95-1.44,2.95c-0.5,1.09-1.11,2.29-0.36,3.43c0.48,0.73,1.71,1.1,2.36,0.3c1.03-1.26,1.97-2.58,2.77-3.99
			c0.74-1.31,1.25-2.86,2.42-3.86c0.95-0.82,2.13-1.17,3.36-1.25c0.98-0.06,1.63-0.83,2.34-1.45c0.67-0.58,1.34-1.16,2-1.74
			c0.61-0.53,0.54-1.58,0-2.12C145.98,54,145.08,54.08,144.46,54.61L144.46,54.61z"/>
	</g>
</g>
<g>
	<g>
		<path class="st2" d="M140.95,70.88c-1.66,0.39-3.33,0.78-4.99,1.17c-1.49,0.35-2.92,0.74-3.69,2.19
			c-0.75,1.41,0.72,2.64,2.05,2.05c0.06-0.03,0.12-0.05,0.18-0.08c-0.25,0.07-0.5,0.14-0.76,0.2c0.06,0.01,0.12,0.02,0.18,0.02
			c-0.25-0.07-0.5-0.14-0.76-0.2c0.54,0.28,0.93,0.73,1.53,0.97c0.65,0.27,1.31,0.53,1.99,0.75c1.32,0.43,2.7,0.59,4.08,0.62
			c1.38,0.03,2.77,0.01,4.15,0.01c1.39,0,2.85,0.05,4.17-0.42c2.41-0.86,4.07-3.44,2.71-5.89c-1.34-2.41-4.44-2.92-6.84-3.66
			c0,0.96,0,1.93,0,2.89c0.59-0.13,1.24,0.03,1.63,0.52c0.21,0.26,0.55,1.13,0.25,1.39c0.22-0.13,0.44-0.26,0.66-0.39
			c-1.45,0.53-2.55-0.63-3.94-0.66c-1.52-0.02-3.16,0.63-4.63,0.99c0.62,0.35,1.23,0.7,1.85,1.05c-0.02-0.06-0.03-0.11-0.05-0.17
			c0,0.27,0,0.53,0,0.8c-0.1,0.38-0.6,0.4-0.02,0.31c0.26-0.04,0.55-0.17,0.8-0.25c0.48-0.15,0.97-0.3,1.45-0.45
			c0.97-0.3,1.93-0.6,2.9-0.89c0.68-0.21,1.04-0.76,1.1-1.45c0.08-0.8-0.02-1.6-0.25-2.37c-0.24-0.79-1.04-1.25-1.85-1.05
			c-0.37,0.09-0.43-0.07-0.73-0.24c-0.48-0.28-1.22-0.28-1.76-0.35c-1.09-0.14-2.15-0.16-3.24,0.03c-0.95,0.17-1.85,0.54-2.71,0.96
			c-0.45,0.21-0.88,0.45-1.31,0.69c-0.17,0.1-0.35,0.19-0.52,0.29c-0.13,0.07-0.26,0.14-0.39,0.21c-0.25,0.11-0.16,0.13,0.26,0.07
			c0.35,0.35,0.7,0.7,1.05,1.05c-0.01-0.04-0.03-0.09-0.04-0.13c-0.62-1.81-3.52-1.04-2.89,0.8c0.86,2.49,3.4,0.63,4.84-0.11
			c0.75-0.39,1.53-0.75,2.37-0.9c1.05-0.19,2.15-0.01,3.19,0.15c-0.22-0.13-0.44-0.26-0.66-0.39c1.01,0.78,2.08,1.1,3.34,0.78
			c-0.62-0.35-1.23-0.7-1.85-1.05c0.17,0.54,0.2,1,0.15,1.57c0.37-0.48,0.73-0.96,1.1-1.45c-1.56,0.48-3.11,0.96-4.67,1.44
			c-1.34,0.41-3.04,1.14-2.51,2.9c0.24,0.79,1.04,1.25,1.85,1.05c0.95-0.23,1.89-0.47,2.84-0.7c0.29-0.07,0.69-0.24,0.99-0.18
			c0.28,0.05,0.57,0.27,0.83,0.38c1.53,0.62,4.21,0.77,5.09-0.91c0.8-1.52,0.42-3.52-0.65-4.8c-1.14-1.37-2.98-1.82-4.67-1.44
			c-1.5,0.34-1.36,2.48,0,2.89c1.05,0.32,2.11,0.62,3.15,0.97c0.7,0.24,1.69,0.63,1.95,1.42c0.2,0.6-0.35,1.08-0.85,1.33
			c-0.91,0.44-2.02,0.36-3,0.36c-2.19,0-4.56,0.25-6.72-0.2c-0.96-0.2-2.23-0.49-3.06-1.04c-0.33-0.22-0.58-0.52-0.94-0.71
			c-0.65-0.33-1.23-0.23-1.87,0.05c0.68,0.68,1.37,1.37,2.05,2.05c0.22-0.41,0.53-0.47,0.97-0.59c0.64-0.17,1.29-0.3,1.93-0.46
			c1.33-0.31,2.66-0.63,3.99-0.94C143.62,73.33,142.83,70.44,140.95,70.88L140.95,70.88z"/>
	</g>
</g>
<g>
	<g>
		<path class="st2" d="M131.33,78.27c-1.31-0.11-2.63-0.22-3.94-0.33c-0.77-0.06-1.55,0.74-1.5,1.5c0.17,2.68,0.82,5.28,1.78,7.78
			c0.93,2.42,1.98,4.93,3.28,7.18c0.65,1.13,1.7,1.92,2.99,2.16c1.14,0.22,2.62,0.32,3.74-0.06c1.3-0.43,1.94-1.61,2.45-2.79
			c0.57-1.32,0.67-2.66-0.1-3.93c-1.38-2.28-3.61-4.14-6-5.29c-1.03-0.5-2.21,0.1-2.26,1.3c-0.12,3.06,0.68,6.1,2.26,8.72
			c1,1.65,3.59,0.14,2.59-1.51c-1.33-2.2-1.95-4.64-1.85-7.21c-0.75,0.43-1.5,0.86-2.26,1.3c1.01,0.49,1.97,1.07,2.82,1.81
			c0.77,0.68,1.73,1.54,2.17,2.5c0.2,0.44,0.05,0.79-0.15,1.24c-0.1,0.22-0.21,0.45-0.33,0.66c-0.05,0.08-0.1,0.17-0.15,0.26
			c-0.17,0.18-0.21,0.21-0.11,0.11c-0.38,0.16-1.06,0.07-1.47,0.05c-0.43-0.01-0.9-0.05-1.28-0.28c-0.4-0.25-0.58-0.73-0.78-1.14
			c-0.3-0.59-0.59-1.19-0.87-1.79c-0.56-1.17-1.11-2.35-1.59-3.55c-0.96-2.41-1.72-4.92-1.88-7.52c-0.5,0.5-1,1-1.5,1.5
			c1.31,0.11,2.63,0.22,3.94,0.33c0.81,0.07,1.5-0.74,1.5-1.5C132.83,78.91,132.14,78.34,131.33,78.27L131.33,78.27z"/>
	</g>
</g>
<g>
	<g>
		<path class="st2" d="M134,88.86c-0.16,0.91-0.28,1.89,0.24,2.72c0.46,0.75,1.29,1.29,2.2,1.22c1.05-0.08,1.97-1.24,1.3-2.26
			c-1.06-1.59-2.13-3.19-3.19-4.78c-0.53-0.8-1.06-1.59-1.6-2.39c-0.24-0.36-0.48-0.72-0.72-1.08c-0.15-0.22-0.41-0.54-0.43-0.8
			c-0.5,0.5-1,1-1.5,1.5c1.54,0.17,3.13,0.98,4.25,2.15c0.66,0.69,1.14,1.53,1.61,2.35c0.57,0.99,1.14,1.97,1.72,2.96
			c0.97,1.67,3.51,0.18,2.59-1.51c-1.36-2.52-2.04-5.41-4.1-7.52c-0.49-0.5-1.06-0.93-1.66-1.3c-0.1-0.06-0.51-0.41-0.36-0.2
			c0.14,0.21-0.12-0.31-0.12-0.3c-0.16-0.27-0.38-0.43-0.62-0.59c-1.23-0.83-2.74-1.55-4.26-1.39c-0.81,0.08-1.5,0.63-1.5,1.5
			c0,0.75,0.69,1.58,1.5,1.5c1.07-0.11,1.95,0.48,2.84,1.04c-0.23-0.3-0.46-0.6-0.69-0.9c0.35,1.19,1.27,1.56,2.18,2.24
			c0.63,0.47,1.13,1.11,1.54,1.77c1.1,1.78,1.68,3.82,2.67,5.66c0.86-0.5,1.73-1.01,2.59-1.51c-1.21-2.09-2.29-4.5-4.07-6.18
			c-1.68-1.6-3.81-2.51-6.11-2.76c-0.77-0.09-1.55,0.76-1.5,1.5c0.08,1.09,0.57,1.91,1.16,2.8c0.58,0.86,1.15,1.73,1.73,2.59
			c1.15,1.73,2.31,3.46,3.46,5.18c0.43-0.75,0.86-1.5,1.3-2.26c0.12-0.01,0.5,0.29,0.42,0.37c-0.05,0.05,0.04-0.55,0.03-0.52
			c0.14-0.8-0.22-1.62-1.05-1.85C135.12,87.62,134.14,88.06,134,88.86L134,88.86z"/>
	</g>
</g>
<g>
	<g>
		<path class="st2" d="M120.47,77.62c-0.18,0.99-0.41,1.96-0.72,2.92c-0.46,1.46,1.47,2.49,2.51,1.46c0.28-0.28,0.56-0.56,0.84-0.84
			c-0.85-0.35-1.71-0.71-2.56-1.06c-0.13,1.78,0.38,3.8-0.37,5.48c-0.33,0.73-0.83,1.35-1.38,1.92c-0.3,0.31-0.62,0.61-0.94,0.91
			c-0.19,0.18-0.59,0.61-0.79,0.64c-0.8,0.14-1.25,1.12-1.05,1.85c0.23,0.85,1.04,1.18,1.85,1.05c1.09-0.18,2.09-1.35,2.84-2.11
			c0.76-0.76,1.48-1.61,1.98-2.57c0.57-1.11,0.83-2.29,0.87-3.53c0.05-1.21-0.09-2.43,0-3.64c0.1-1.33-1.69-1.93-2.56-1.06
			c-0.28,0.28-0.56,0.56-0.84,0.84c0.84,0.49,1.67,0.97,2.51,1.46c0.3-0.96,0.54-1.93,0.72-2.92c0.14-0.8-0.22-1.62-1.05-1.85
			C121.59,76.38,120.61,76.82,120.47,77.62L120.47,77.62z"/>
	</g>
</g>
<g>
	<g>
		<path class="st2" d="M119.79,86.9c-0.1,0.79-0.2,1.63-0.54,2.36c-0.37,0.79-1.06,1.38-1.69,1.97c-0.6,0.56-1.2,1.11-1.91,1.53
			c-0.44,0.26-1.39,0.72-1.78,0.54c-0.2-0.09-0.42-0.46-0.57-0.64c-0.26-0.32-0.51-0.64-0.74-0.98c-0.52-0.79-0.69-1.46-0.73-2.39
			c-0.02-0.41-0.19-0.94-0.13-1.34c0.02-0.18,0.26-0.42,0.44-0.62c0.57-0.64,1.18-1.24,1.83-1.8c1.3-1.1,2.93-2.01,4.64-2.22
			c0.8-0.1,1.5-0.62,1.5-1.5c0-0.74-0.69-1.6-1.5-1.5c-2.4,0.29-4.48,1.28-6.37,2.77c-0.86,0.68-1.65,1.45-2.36,2.27
			c-0.42,0.48-0.84,0.98-1.03,1.59c-0.23,0.71-0.08,1.37-0.03,2.08c0.08,1.38,0.22,2.58,0.93,3.79c0.58,0.99,1.37,2.13,2.29,2.83
			c2.15,1.65,5.07-0.08,6.79-1.54c1.02-0.87,2.09-1.82,2.8-2.96c0.8-1.28,0.99-2.79,1.17-4.26c0.1-0.81-0.76-1.5-1.5-1.5
			C120.4,85.4,119.89,86.09,119.79,86.9L119.79,86.9z"/>
	</g>
</g>
<g>
	<g>
		<path class="st2" d="M111.65,87.01c-0.07,0.18,0.23-0.29,0.12-0.16c0.16-0.19,0.35-0.35,0.54-0.51c0.34-0.3,0.7-0.57,1.07-0.84
			c0.91-0.67,1.83-1.32,2.74-1.97c1.8-1.29,3.6-2.57,5.53-3.65c0.71-0.39,0.94-1.36,0.54-2.05c-0.42-0.71-1.34-0.93-2.05-0.54
			c-2.11,1.17-4.06,2.59-6.02,4c-0.96,0.69-1.94,1.37-2.88,2.09c-1.05,0.8-1.99,1.57-2.48,2.84c-0.29,0.76,0.32,1.65,1.05,1.85
			C110.65,88.29,111.36,87.77,111.65,87.01L111.65,87.01z"/>
	</g>
</g>
<g>
	<g>
		<path class="st2" d="M118.72,83.73c-1.25,1.97-2.61,3.86-4.1,5.66c0.85,0.35,1.71,0.71,2.56,1.06c0.01-1.49,0.42-2.87,1.23-4.16
			c0.71-1.12-0.46-2.54-1.69-2.2c-1.93,0.52-3.97,1.16-5.3,2.74c-1.46,1.73-1.53,3.95-0.99,6.06c0.25,0.98,0.66,1.92,1.31,2.7
			c0.83,0.99,2.21,1.47,3.26,0.5c0.78-0.72,1.44-1.74,1.52-2.82c0.07-1.03-0.45-2.2-1.44-2.64c-0.74-0.33-1.61-0.22-2.05,0.54
			c-0.37,0.64-0.21,1.72,0.54,2.05c0.18,0.08,0.06,0.07,0.03-0.02c0,0.01-0.17-0.33-0.08-0.15c0.09,0.18,0-0.19,0.01,0.01
			c0,0.09,0,0.09,0.01,0.01c0.02-0.12,0.01-0.08-0.04,0.11c0,0-0.19,0.31-0.27,0.41c0.08-0.1-0.15,0.16-0.17,0.18
			c-0.23,0.28-0.18-0.01,0.18-0.07c0.27,0,0.53,0,0.8,0c-0.36-0.06,0.16,0.07,0.15,0.13c0-0.03-0.21-0.2-0.23-0.24
			c0.09,0.1-0.05-0.06-0.07-0.09c-0.08-0.11-0.15-0.23-0.21-0.36c-0.14-0.27-0.26-0.63-0.37-1.05c-0.23-0.89-0.35-1.72-0.07-2.56
			c0.21-0.63,0.77-1.15,1.38-1.51c0.89-0.53,1.9-0.78,2.89-1.05c-0.56-0.73-1.13-1.47-1.69-2.2c-1.07,1.7-1.63,3.67-1.64,5.67
			c0,1.21,1.7,2.09,2.56,1.06c1.65-1.99,3.18-4.08,4.57-6.27c0.43-0.68,0.14-1.65-0.54-2.05C120.05,82.77,119.16,83.05,118.72,83.73
			L118.72,83.73z"/>
	</g>
</g>
<g>
	<g>
		<path class="st2" d="M116.24,92.06c0.42-1.57-0.28-3.27-1.66-4.13c-0.33-0.2-0.79-0.25-1.16-0.15c-0.35,0.1-0.72,0.36-0.9,0.69
			c-0.18,0.35-0.28,0.77-0.15,1.16c0.12,0.38,0.35,0.68,0.69,0.9c0.07,0.04,0.13,0.09,0.2,0.14c-0.1-0.08-0.2-0.16-0.3-0.23
			c0.13,0.11,0.25,0.23,0.36,0.36c-0.08-0.1-0.16-0.2-0.23-0.3c0.13,0.16,0.23,0.34,0.31,0.53c-0.05-0.12-0.1-0.24-0.15-0.36
			c0.07,0.18,0.12,0.37,0.15,0.56c-0.02-0.13-0.04-0.27-0.05-0.4c0.03,0.19,0.03,0.38,0,0.58c0.02-0.13,0.04-0.27,0.05-0.4
			c-0.01,0.09-0.03,0.18-0.05,0.27c-0.1,0.38-0.05,0.82,0.15,1.16c0.18,0.31,0.54,0.61,0.9,0.69c0.38,0.09,0.81,0.07,1.16-0.15
			C115.88,92.74,116.14,92.44,116.24,92.06L116.24,92.06z"/>
	</g>
</g>
<g>
	<g>
		<path class="st2" d="M119.69,76.81c-1.54,0.7-2.83,1.87-4.14,2.91c-1.36,1.07-2.71,2.14-4.07,3.21c-0.62,0.49-0.55,1.62,0,2.12
			c0.66,0.6,1.46,0.52,2.12,0c1.32-1.04,2.63-2.07,3.95-3.11c0.33-0.26,0.66-0.52,0.99-0.78c0.16-0.12,0.31-0.25,0.47-0.37
			c0.14-0.11,0.15-0.12,0.03-0.03c0.08-0.06,0.15-0.12,0.23-0.17c0.61-0.46,1.24-0.87,1.94-1.19c0.72-0.32,0.95-1.42,0.54-2.05
			C121.26,76.61,120.46,76.46,119.69,76.81L119.69,76.81z"/>
	</g>
</g>
<g>
	<g>
		<path class="st2" d="M119.61,72.29c-0.75-0.01-1.66-0.14-2.37,0.13c-0.47,0.18-0.84,0.55-0.99,1.04
			c-0.05,0.17-0.27,0.86,0.04,0.26c-0.09,0.18,0.16-0.4,0.24-0.34c-0.04-0.04-0.75,0.17-0.84,0.19c-0.39,0.08-0.77,0.19-1.14,0.31
			c-0.76,0.24-1.5,0.55-2.24,0.87c-1.27,0.54-2.52,1.2-3.86,1.56c-0.31,0.08-0.41,0.1-0.67,0.11c-0.04,0-0.36,0.03-0.2,0
			c-0.15,0.03-0.11-0.1-0.1-0.02c0,0.02,0.05,0.11,0.06,0.14c0.07,0.15-0.13,0.14,0-0.04c-0.09,0.12-0.02,0.16-0.21,0.23
			c0.94-0.37,1.62-1.71,0.66-2.51c-0.19,0.75-0.14,1.03,0.13,0.84c0.06-0.07,0.13-0.12,0.21-0.16c0.18-0.12,0.37-0.22,0.56-0.31
			c0.4-0.19,0.85-0.3,1.28-0.39c1-0.22,2.03-0.28,3.06-0.32c1.13-0.05,2.26-0.07,3.4-0.06c0.71,0,1.53-0.02,2.03,0.51
			c1.33,1.41,3.44-0.72,2.12-2.12c-1.08-1.15-2.65-1.38-4.15-1.39c-1.64-0.01-3.29,0.01-4.93,0.17c-1.55,0.14-3.11,0.37-4.51,1.11
			c-0.72,0.38-1.42,0.93-1.78,1.67c-0.41,0.85-0.27,1.95,0.47,2.58c0.22-0.84,0.44-1.67,0.66-2.51c-1.78,0.69-2.68,2.87-1.38,4.46
			c1.19,1.45,3.21,1.23,4.79,0.67c1.72-0.61,3.33-1.49,5.06-2.09c0.81-0.28,1.68-0.37,2.48-0.67c0.44-0.17,0.83-0.39,1.15-0.75
			c0.16-0.19,0.28-0.38,0.37-0.61c0.03-0.09,0.28-1.01,0.14-0.6c-0.23,0.3-0.46,0.6-0.69,0.9c0.04-0.02,0.08-0.05,0.12-0.07
			c-0.25,0.07-0.5,0.14-0.76,0.2c0.59-0.05,1.2,0,1.79,0C121.54,75.31,121.54,72.31,119.61,72.29L119.61,72.29z"/>
	</g>
</g>
<g>
	<g>
		<path class="st2" d="M114.88,72.83c-1.12-0.2-2.23-0.27-3.36-0.13c-1.24,0.15-2.37,0.47-3.51,0.98c-0.32,0.14-0.6,0.57-0.69,0.9
			c-0.1,0.36-0.05,0.84,0.15,1.16c0.21,0.32,0.51,0.6,0.9,0.69c0.42,0.1,0.77,0.02,1.16-0.15c0.15-0.07,0.12-0.06-0.08,0.03
			c0.06-0.03,0.12-0.05,0.19-0.08c0.09-0.04,0.19-0.07,0.28-0.11c0.22-0.08,0.45-0.15,0.67-0.21c0.23-0.06,0.46-0.12,0.69-0.16
			c0.1-0.02,0.2-0.04,0.3-0.05c0.07-0.01,0.13-0.02,0.2-0.03c-0.22,0.03-0.27,0.04-0.15,0.02c0.45-0.04,0.9-0.07,1.36-0.06
			c0.24,0.01,0.47,0.02,0.7,0.04c0.1,0.01,0.2,0.03,0.3,0.03c-0.46-0.03,0,0.01,0.1,0.02c0.41,0.07,0.79,0.06,1.16-0.15
			c0.31-0.18,0.61-0.54,0.69-0.9C116.09,73.95,115.7,72.98,114.88,72.83L114.88,72.83z"/>
	</g>
</g>
<g>
	<g>
		<path class="st2" d="M112.65,52.37c-2.33-0.1-4.48,1.62-4.88,3.92c-0.44,2.5,0.81,4.71,2.4,6.53c1.49,1.7,3.26,3.18,5.18,4.38
			c0.94,0.58,1.92,1.09,2.94,1.53c1.1,0.47,2.39,0.89,3.43,0.02c1.23-1.03,0.96-2.72,0.04-3.85c-0.33-0.4-0.7-0.74-0.96-1.18
			c-0.31-0.53-0.47-1.08-0.57-1.69c-0.73,0.56-1.47,1.13-2.2,1.69c0.65,0.33,1.18,0.89,1.25,1.65c0.17,1.75,2.29,1.96,2.95,0.4
			c0.62-1.46-0.48-2.69-1.56-3.5c-0.74-0.55-1.27-1.21-1.79-1.96c-1.25-1.84-2.37-3.62-4.51-4.49c-0.75-0.3-1.65,0.34-1.85,1.05
			c-0.43,1.56,0.03,3.17,0.92,4.48c0.79,1.16,1.86,2.11,2.47,3.39c0.79-0.61,1.57-1.21,2.36-1.82c-2.41-2.08-4.33-4.57-5.75-7.42
			c-0.18,0.68-0.36,1.37-0.54,2.05c-0.43,0.24-0.26-0.14-0.16,0.05c0.06,0.11,0.34,0.27,0.44,0.38c0.38,0.42,0.66,0.96,0.97,1.43
			c0.7,1.07,1.48,2.09,2.58,2.78c1.05,0.65,2.43,0.96,3.62,0.53c1.58-0.56,1.36-2.19,0.95-3.48c-0.68-2.13-1.95-4.12-3.67-5.56
			c-0.92-0.77-1.96-1.49-3.11-1.86c-0.63-0.2-1.31-0.27-1.96-0.16c-0.36,0.06-0.69,0.18-1.02,0.34c-0.09,0.04-0.22,0.1-0.29,0.16
			c-0.2,0.1-0.12,0.09,0.24-0.04c-0.13-0.02-0.27-0.04-0.4-0.05c-1.56-0.07-2.64,1.72-3,3.05c-0.19,0.69-0.18,1.45,0.05,2.13
			c0.11,0.32,0.57,1.1,0.51,1.31c-0.53,1.86,2.37,2.66,2.89,0.8c0.25-0.89,0.03-1.67-0.33-2.49c-0.26-0.59-0.34-0.89,0-1.48
			c0.09-0.15,0.3-0.35,0.33-0.51c0.16-0.19,0.06-0.17-0.29,0.04c-0.5,0.12-0.48,0.18,0.04,0.19c0.5,0.03,0.93-0.08,1.37-0.3
			c0.22-0.11,0.36-0.22,0.6-0.22c0.32,0,0.72,0.22,0.99,0.37c1.1,0.6,2.09,1.46,2.82,2.48c0.42,0.57,0.78,1.2,1.06,1.85
			c0.12,0.27,0.21,0.56,0.3,0.84c0.05,0.17,0.1,0.34,0.14,0.52c0.02,0.08,0.06,0.52,0.06,0.36c0.07-0.25,0.14-0.5,0.2-0.76
			c0.01-0.02,0.03-0.03,0.04-0.05c0.22-0.13,0.44-0.26,0.66-0.39c-1.49,0.56-2.63-1.66-3.27-2.64c-1.06-1.62-2.82-3.4-4.89-2.22
			c-0.74,0.42-0.9,1.33-0.54,2.05c1.52,3.05,3.64,5.8,6.21,8.02c1.31,1.13,3.09-0.26,2.36-1.82c-0.53-1.12-1.39-2.01-2.15-2.97
			c-0.57-0.71-1.2-1.64-0.93-2.59c-0.62,0.35-1.23,0.7-1.85,1.05c1.15,0.47,1.96,2,2.71,3.11c0.49,0.73,1.01,1.46,1.64,2.07
			c0.32,0.31,0.68,0.58,1.04,0.84c0.12,0.09,0.26,0.22,0.39,0.3c0.03,0.02,0.16-0.5-0.03-0.06c0.98,0.13,1.96,0.27,2.95,0.4
			c-0.17-1.79-1.09-3.42-2.74-4.24c-1.24-0.62-2.42,0.39-2.2,1.69c0.17,1.03,0.57,2.04,1.19,2.88c0.2,0.27,0.67,1.05,1.01,1.19
			c0.21,0.09,0.98-1.26,0.57-0.6c0.3,0.02,0.32,0.01,0.05-0.04c-0.06-0.02-0.13-0.04-0.19-0.06c-1.82-0.61-3.62-1.79-5.1-3
			c-1.46-1.2-3.17-2.7-3.9-4.48c-0.6-1.46-0.2-3.41,1.69-3.33C114.58,55.45,114.58,52.45,112.65,52.37L112.65,52.37z"/>
	</g>
</g>
<rect x="232.43" y="-113.32" style="fill:none;" width="2.12" height="1.06"/>
<g>
	<g>
		<path d="M126.04,68.55c-1.13,0.41-2.17,1.22-2.9,2.17c-0.47,0.61-0.72,1.4-0.5,2.16c0.08,0.27,0.21,0.54,0.37,0.78
			c0.05,0.08,0.1,0.17,0.16,0.24c0.08,0.14,0.07,0.11-0.03-0.11c0.06,0.26,0.07,0.11,0.02-0.45c0.62-0.35,1.23-0.7,1.85-1.05
			c-0.23-0.06,0.07,0.04,0.15,0.1c0.05,0.04,0.25,0.33,0.12,0.12c-0.79,0.61-1.57,1.21-2.36,1.82c0.75,0.92,1.65,1.79,2.81,2.14
			c0.72,0.21,1.55,0.18,2.23-0.16c0.19-0.1,0.37-0.24,0.52-0.39c0.08-0.08,0.23-0.24,0.27-0.34c-0.01,0.03-0.83,0.51-0.48,0.41
			c-0.01,0-0.3,0.03-0.13,0.02c0.15,0,0.31-0.04,0.45-0.06c0.12-0.02,0.24-0.05,0.36-0.09c1.32-0.49,2.22-1.72,2.27-3.14
			c0.05-1.42-0.94-2.66-2.24-3.14c-0.71-0.26-1.58-0.26-2.25,0.1c-0.99,0.52-1.1,1.94-0.74,2.88c0.4,1.07,1.62,1.46,2.51,0.66
			c0.81-0.72,1.35-1.62,1.75-2.61c0.17-0.43,0-0.97-0.27-1.31c-0.31-0.4-0.69-0.54-1.18-0.59c-0.16-0.02-0.33-0.03-0.49-0.05
			c-0.58-0.06-1.16,0.43-1.37,0.92c-0.23,0.55-0.12,1.21,0.31,1.64c-0.1-0.11-0.16-0.24-0.21-0.38c-0.02-0.26-0.03-0.3-0.03-0.14
			c0.04-0.24,0.04-0.29,0-0.12c0.1-0.21,0.11-0.24,0.03-0.1c0.27-0.37-0.03,0.01-0.11,0.08c-0.11,0.1-0.23,0.19-0.35,0.29
			c-0.59,0.51-0.92,1.18-1.13,1.92c-0.04,0.13-0.07,0.25-0.11,0.38c-0.02,0.07-0.04,0.14-0.07,0.21c0.09-0.19,0.09-0.21,0.02-0.06
			c-0.15,0.24-0.31,0.47-0.47,0.71c-0.49,0.7-0.72,1.5-0.5,2.34c0.18,0.68,0.79,1.05,1.45,1.1c2.06,0.16,4.25-0.21,5.41-2.12
			c1.13-1.88,0.73-4.32-0.54-6.02c-0.69-0.92-1.53-1.68-2.7-1.89c-1.24-0.22-2.39,0.08-3.51,0.6c-1.12,0.52-2.39,1.17-2.38,2.6
			c0,0.2,0.02,0.42,0.03,0.61c0.03,0.37,0.08-0.28,0,0.09c-0.03,0.12-0.05,0.24-0.08,0.36c-0.14,0.56-0.29,1.09-0.34,1.66
			c-0.24,2.47,2.22,4.53,4.6,3.97c0.76-0.18,1.29-1.09,1.05-1.85c-0.26-0.8-1.03-1.24-1.85-1.05c-0.31,0.07,0.28,0.01,0.08,0
			c-0.06,0-0.12,0-0.19,0c-0.27,0.01,0-0.09,0.08,0.02c-0.01-0.01-0.18-0.04-0.18-0.04c-0.03-0.01-0.17-0.06-0.18-0.06
			c0.09-0.06,0.28,0.15,0.1,0.03c-0.05-0.03-0.11-0.07-0.16-0.1c-0.27-0.14,0.2,0.2,0,0.01c-0.05-0.05-0.09-0.09-0.14-0.13
			c-0.02-0.02-0.24-0.26-0.07-0.07c0.19,0.22-0.18-0.24-0.14-0.25c0.02-0.01,0.12,0.36,0.04,0.09c-0.02-0.06-0.04-0.13-0.05-0.19
			c-0.07-0.24,0.01,0.06,0,0.11c0.02-0.08-0.01-0.24-0.01-0.32c0-0.32-0.02,0.01-0.01,0.03c-0.01-0.05,0.03-0.18,0.05-0.24
			c0.04-0.18,0.09-0.36,0.14-0.54c0.12-0.47,0.23-0.94,0.26-1.42c0.01-0.16,0-0.33-0.01-0.49c0-0.02,0-0.22-0.02-0.25
			c0.15,0.23-0.2,0.49-0.32,0.63c-0.15,0.16,0.04-0.02,0.1-0.05c0.07-0.04,0.13-0.07,0.2-0.11c0.19-0.1,0.38-0.21,0.57-0.3
			c0.15-0.08,0.31-0.15,0.47-0.22c-0.26,0.12-0.06,0.02,0,0.01c0.1-0.03,0.2-0.07,0.3-0.1c0.13-0.04,0.4-0.15,0.54-0.13
			c-0.03,0-0.35,0.02-0.05,0.01c0.12,0,0.23-0.01,0.35-0.01c0.03,0,0.23,0.01,0.23,0.02c0,0.03-0.38-0.09-0.06,0.01
			c0.01,0,0.2,0.04,0.22,0.06c-0.06-0.08-0.21-0.12-0.04-0.02c0.08,0.05,0.16,0.1,0.25,0.15c0.17,0.1-0.17-0.18-0.04-0.02
			c0.12,0.14,0.26,0.28,0.39,0.41c0.15,0.16-0.19-0.29,0.02,0.02c0.04,0.07,0.09,0.13,0.13,0.2c0.09,0.13,0.17,0.27,0.24,0.41
			c0.04,0.07,0.07,0.14,0.11,0.22c0.17,0.34-0.05-0.19,0.01,0.03c0.05,0.19,0.12,0.38,0.17,0.58c0.02,0.1,0.12,0.33,0.01,0.02
			c0.02,0.06,0.02,0.17,0.02,0.23c0.01,0.15,0,0.3-0.01,0.45c-0.01,0.3,0.02-0.05,0.01-0.06c0.02,0.06-0.04,0.21-0.06,0.27
			c-0.02,0.07-0.04,0.14-0.06,0.21c-0.02,0.05-0.04,0.11-0.06,0.16c0.08-0.17,0.09-0.21,0.04-0.11c-0.04,0.06-0.07,0.13-0.1,0.19
			c-0.02,0.04-0.24,0.34-0.1,0.16c0.13-0.16-0.02,0.02-0.06,0.06c-0.03,0.03-0.31,0.28-0.13,0.14c0.16-0.13-0.02,0.01-0.07,0.04
			c-0.09,0.06-0.19,0.1-0.28,0.16c-0.18,0.1,0.26-0.08,0.06-0.03c-0.1,0.03-0.2,0.07-0.31,0.1c-0.07,0.02-0.14,0.03-0.21,0.05
			c-0.05,0.01-0.42,0.04-0.18,0.03c0.22-0.01-0.02,0-0.07,0c-0.11,0.01-0.22,0.01-0.33,0.02c-0.39,0.01-0.78-0.01-1.16-0.04
			c0.48,0.37,0.96,0.73,1.45,1.1c-0.05-0.21,0.01,0.04,0.01,0.11c0,0.08-0.07,0.32,0,0.12c-0.03,0.08-0.14,0.26-0.03,0.09
			c0.05-0.07,0.09-0.15,0.14-0.22c0.16-0.24,0.34-0.46,0.49-0.7c0.21-0.34,0.35-0.73,0.46-1.11c0.04-0.14,0.08-0.29,0.12-0.43
			c0.01-0.02,0.07-0.21,0.07-0.21c0.02,0.01-0.16,0.3,0,0.01c0.03-0.06,0.17-0.18,0.04-0.07c-0.15,0.13,0.05-0.03,0.07-0.05
			c0.11-0.1,0.23-0.2,0.34-0.29c0.3-0.25,0.57-0.54,0.76-0.88c0.49-0.91,0.46-2.07-0.31-2.82c-0.35,0.85-0.71,1.71-1.06,2.56
			c0.16,0.02,0.33,0.03,0.49,0.05c-0.48-0.63-0.96-1.27-1.45-1.9c0.05-0.12,0.08-0.17,0.01-0.02c-0.05,0.09-0.09,0.18-0.14,0.27
			c-0.09,0.16-0.19,0.31-0.29,0.46c-0.09,0.13-0.06,0.08,0.02-0.02c-0.05,0.06-0.1,0.12-0.16,0.18c-0.13,0.15-0.27,0.29-0.42,0.42
			c0.84,0.22,1.67,0.44,2.51,0.66c-0.03-0.08-0.06-0.15-0.08-0.23c0.01,0.17,0.02,0.21,0.01,0.09c0.02-0.38-0.02,0.03-0.1,0.17
			c-0.18,0.18-0.36,0.36-0.54,0.54c-0.21,0.07-0.27,0.09-0.15,0.06c0.12-0.03,0.06-0.02-0.17,0.02c0.05,0,0.09,0,0.14,0
			c0.12,0.01,0.06-0.01-0.17-0.03c0.02,0.02,0.28,0.06,0.27,0.07c0.01-0.01-0.37-0.12-0.06-0.01c0.04,0.02,0.08,0.05,0.12,0.08
			c-0.16-0.13-0.2-0.16-0.11-0.09c0.01,0.01,0.17,0.16,0.17,0.17c-0.13-0.18-0.15-0.21-0.06-0.07c0.02,0.03,0.03,0.06,0.05,0.08
			c0.16,0.23-0.06-0.28,0,0c0.01,0.05,0.03,0.09,0.03,0.14c0.02,0.12,0.02,0.06-0.02-0.15c0,0.03,0,0.07,0,0.1
			c-0.01,0.17,0,0.13,0.03-0.11c-0.02,0.01-0.05,0.22-0.06,0.24c-0.02,0.12,0.16-0.29,0,0c-0.01,0.01-0.12,0.21-0.13,0.21
			c0.14-0.17,0.16-0.2,0.05-0.08c-0.02,0.02-0.05,0.05-0.07,0.07c-0.19,0.21,0.25-0.12,0,0c-0.04,0.02-0.08,0.05-0.12,0.07
			c-0.1,0.05-0.06,0.03,0.14-0.06c-0.03,0.01-0.06,0.02-0.09,0.03c-0.16,0.03-0.12,0.03,0.11-0.01c-0.18,0.04-0.37,0.04-0.56,0.07
			c-0.37,0.07-0.72,0.26-1,0.51c-0.11,0.12-0.22,0.24-0.31,0.38c0.03-0.05,0.07-0.09,0.1-0.14c0.41-0.2,0.52-0.27,0.33-0.22
			c-0.11,0.03-0.07,0.02,0.14-0.01c-0.05,0-0.1,0.01-0.15,0c-0.12,0-0.07,0.01,0.15,0.03c-0.01,0.02-0.28-0.07-0.3-0.07
			c-0.26-0.06,0.17,0.1,0.02,0.01c-0.09-0.06-0.19-0.1-0.28-0.16c-0.15-0.1-0.16-0.09-0.01,0.01c-0.09-0.06-0.17-0.14-0.26-0.22
			c-0.34-0.31-0.63-0.65-0.92-1c-0.47-0.58-1.43-0.53-1.97-0.12c-0.58,0.45-0.78,1.29-0.39,1.94c0.35,0.57,0.88,1,1.53,1.16
			c0.72,0.18,1.71-0.23,1.85-1.05c0.11-0.67,0.02-1.24-0.34-1.83c-0.02-0.04-0.24-0.41-0.25-0.41c0.15-0.02,0.08,0.55,0.07,0.59
			c0.05-0.27-0.09,0.19-0.01,0.03c0.08-0.15-0.24,0.24-0.01,0.01c0.06-0.06,0.12-0.13,0.19-0.19c0.16-0.15,0.32-0.3,0.49-0.45
			c0.08-0.07,0.16-0.13,0.23-0.2c0.13-0.11-0.2,0.13,0.03-0.02c0.1-0.06,0.2-0.12,0.31-0.19c0.26-0.16-0.24,0.08,0.08-0.04
			c0.73-0.27,1.31-1.03,1.05-1.85C127.65,68.88,126.83,68.26,126.04,68.55L126.04,68.55z"/>
	</g>
</g>
</svg>
